<svg width="512" height="512" viewBox="0 0 512 512" fill="none" xmlns="http://www.w3.org/2000/svg">
<rect width="512" height="512" rx="108" fill="#1C1C2E"/>
<path d="M73 107H201V193H157V237H73V107Z" fill="#FFC953"/>
<path d="M241 118H281C325.87 118 368.96 135.82 400.57 167.43C432.18 199.04 450 242.13 450 287C450 331.87 432.18 374.96 400.57 406.57C368.96 438.18 325.87 456 281 456H97V280H181V372H281C301.96 372 322.07 363.67 336.87 348.87C351.67 334.07 360 313.96 360 293C360 272.04 351.67 251.93 336.87 237.13C322.07 222.33 301.96 214 281 214H241V118Z" fill="#0066FF"/>
</svg>
