<svg width="2194" height="559" viewBox="0 0 2194 559" fill="none" xmlns="http://www.w3.org/2000/svg">
<path d="M0 0H160V104H104V160H0V0Z" fill="#FFC953"/>
<path d="M214 17H262C315.043 17 365.914 38.0714 403.421 75.5786C440.929 113.086 462 163.957 462 217C462 270.043 440.929 320.914 403.421 358.421C365.914 395.929 315.043 417 262 417H22V209H126V313H262C287.461 313 311.879 302.886 329.882 284.882C347.886 266.879 358 242.461 358 217C358 191.539 347.886 167.121 329.882 149.118C311.879 131.114 287.461 121 262 121H214V17Z" fill="#0066FF"/>
<path d="M1879.35 267.884C1879.35 237.35 1885.04 210.545 1896.4 187.467C1908.11 164.39 1923.91 146.638 1943.79 134.212C1963.68 121.785 1985.87 115.572 2010.36 115.572C2029.89 115.572 2047.64 119.655 2063.62 127.821C2079.95 135.987 2092.73 146.993 2101.96 160.84V22.907H2193.03V417H2101.96V374.395C2093.44 388.597 2081.19 399.958 2065.22 408.479C2049.6 417 2031.31 421.26 2010.36 421.26C1985.87 421.26 1963.68 415.047 1943.79 402.621C1923.91 389.84 1908.11 371.91 1896.4 348.833C1885.04 325.4 1879.35 298.417 1879.35 267.884ZM2101.96 268.416C2101.96 245.694 2095.57 227.764 2082.79 214.628C2070.37 201.491 2055.1 194.923 2036.99 194.923C2018.88 194.923 2003.44 201.491 1990.66 214.628C1978.23 227.409 1972.02 245.161 1972.02 267.884C1972.02 290.606 1978.23 308.713 1990.66 322.205C2003.44 335.341 2018.88 341.909 2036.99 341.909C2055.1 341.909 2070.37 335.341 2082.79 322.205C2095.57 309.068 2101.96 291.139 2101.96 268.416Z" fill="#0066FF"/>
<path d="M1517.9 267.884C1517.9 237.35 1523.58 210.545 1534.94 187.467C1546.66 164.39 1562.46 146.638 1582.34 134.212C1602.22 121.785 1624.41 115.572 1648.91 115.572C1669.86 115.572 1688.14 119.832 1703.76 128.353C1719.74 136.874 1731.99 148.058 1740.51 161.905V119.832H1831.58V417H1740.51V374.928C1731.63 388.774 1719.21 399.958 1703.23 408.479C1687.61 417 1669.33 421.26 1648.38 421.26C1624.24 421.26 1602.22 415.047 1582.34 402.621C1562.46 389.839 1546.66 371.91 1534.94 348.833C1523.58 325.4 1517.9 298.417 1517.9 267.884ZM1740.51 268.416C1740.51 245.694 1734.12 227.764 1721.34 214.628C1708.91 201.491 1693.65 194.923 1675.54 194.923C1657.43 194.923 1641.99 201.491 1629.21 214.628C1616.78 227.409 1610.57 245.161 1610.57 267.884C1610.57 290.606 1616.78 308.713 1629.21 322.205C1641.99 335.341 1657.43 341.909 1675.54 341.909C1693.65 341.909 1708.91 335.341 1721.34 322.205C1734.12 309.068 1740.51 291.139 1740.51 268.416Z" fill="#0066FF"/>
<path d="M1265.62 161.905C1274.5 148.058 1286.75 136.874 1302.37 128.353C1317.99 119.832 1336.28 115.572 1357.22 115.572C1381.72 115.572 1403.91 121.785 1423.79 134.212C1443.68 146.638 1459.3 164.39 1470.66 187.467C1482.37 210.545 1488.23 237.35 1488.23 267.884C1488.23 298.417 1482.37 325.4 1470.66 348.833C1459.3 371.91 1443.68 389.839 1423.79 402.621C1403.91 415.047 1381.72 421.26 1357.22 421.26C1336.63 421.26 1318.35 417 1302.37 408.479C1286.75 399.958 1274.5 388.952 1265.62 375.46V558.66H1174.56V119.832H1265.62V161.905ZM1395.57 267.884C1395.57 245.161 1389.18 227.409 1376.4 214.628C1363.97 201.491 1348.52 194.923 1330.06 194.923C1311.96 194.923 1296.51 201.491 1283.73 214.628C1271.3 227.764 1265.09 245.694 1265.09 268.416C1265.09 291.139 1271.3 309.068 1283.73 322.205C1296.51 335.341 1311.96 341.909 1330.06 341.909C1348.17 341.909 1363.61 335.341 1376.4 322.205C1389.18 308.713 1395.57 290.606 1395.57 267.884Z" fill="#0066FF"/>
<path d="M974.859 331.791L1039.3 119.833H1136.22L1030.78 417H918.408L812.961 119.833H910.419L974.859 331.791Z" fill="#0066FF"/>
<path d="M793.144 263.623C793.144 272.144 792.612 281.02 791.547 290.251H585.447C586.867 308.713 592.725 322.915 603.021 332.856C613.672 342.442 626.631 347.235 641.898 347.235C664.62 347.235 680.419 337.649 689.295 318.477H786.221C781.25 338.004 772.197 355.578 759.06 371.2C746.279 386.822 730.125 399.07 710.598 407.946C691.071 416.822 669.236 421.26 645.093 421.26C615.98 421.26 590.062 415.047 567.34 402.621C544.617 390.194 526.865 372.443 514.084 349.365C501.302 326.288 494.912 299.305 494.912 268.416C494.912 237.528 501.125 210.545 513.551 187.467C526.333 164.39 544.084 146.638 566.807 134.212C589.529 121.785 615.625 115.572 645.093 115.572C673.851 115.572 699.414 121.608 721.781 133.679C744.149 145.75 761.546 162.97 773.972 185.337C786.753 207.705 793.144 233.8 793.144 263.623ZM699.947 239.658C699.947 224.036 694.621 211.61 683.97 202.379C673.319 193.148 660.005 188.533 644.028 188.533C628.761 188.533 615.802 192.97 605.151 201.846C594.855 210.722 588.464 223.326 585.979 239.658H699.947Z" fill="#0066FF"/>
</svg>
